# xmcd
#
# Track frame offsets:
#	150
#	21015
#	44580
#	82865
#	107178
#	127250
#	148138
#	168803
#	184050
#	205893
#
# Disc length: 3039 seconds
#
# Revision: 1
# Processed by: cddbd v1.4PL0 Copyright (c) Steve Scherf et al.
# Submitted via: EasyCDDAExtractor 5.0.6
#
DISCID=8a0bdd0a
DTITLE=Salgueiro - Enredos
DYEAR=1900
DGENRE=Nacional
TTITLE0=Chica Da Silva
TTITLE1=Skindô Skindô
TTITLE2=Me Masso Se Não Passo Pela Rua Do Ouvidor/Peguei Um Ita No Norte
TTITLE3=Chico Rei
TTITLE4=História Da Liberdade No Brasil
TTITLE5=História Do Carnaval Carioca
TTITLE6=Bahia De Todos Os Deuses
TTITLE7=Festa Para Um Rei Negro
TTITLE8=Rei De França Na Ilha Da Assombração
TTITLE9=Quilombo Dos Palmares
EXTD=By SeccoXiru\n
EXTT0=
EXTT1=
EXTT2=
EXTT3=
EXTT4=
EXTT5=
EXTT6=
EXTT7=
EXTT8=
EXTT9=
PLAYORDER=
